<svg width="1038" height="932" viewBox="0 0 1038 932" fill="none" xmlns="http://www.w3.org/2000/svg">
<path d="M879.15 515.839C796.855 671.289 450.511 649.584 90.2508 610.047C-270.01 570.51 -81.1238 219.011 1.17106 63.5618C83.4659 -91.8878 372.93 -103.158 606.053 16.9318C839.175 137.021 961.445 360.39 879.15 515.839Z" fill="#272626"/>
<path d="M879.15 515.839C796.855 671.289 450.511 649.584 90.2508 610.047C-270.01 570.51 -81.1238 219.011 1.17106 63.5618C83.4659 -91.8878 372.93 -103.158 606.053 16.9318C839.175 137.021 961.445 360.39 879.15 515.839Z" fill="#272626"/>
<path d="M869.587 482.254C788.586 635.261 450.146 615.165 98.169 577.6C-253.808 540.035 -67.9098 194.05 13.0918 41.0434C94.0934 -111.963 377.059 -124.061 604.477 -6.90961C831.895 110.241 950.589 329.247 869.587 482.254Z" fill="white"/>
<path d="M869.587 482.254C788.586 635.261 450.146 615.165 98.169 577.6C-253.808 540.035 -67.9098 194.05 13.0918 41.0434C94.0934 -111.963 377.059 -124.061 604.477 -6.90961C831.895 110.241 950.589 329.247 869.587 482.254Z" fill="white"/>
</svg>
